<?xml version="1.0" encoding="utf-8"?>
<!-- Generator: Adobe Illustrator 15.1.0, SVG Export Plug-In . SVG Version: 6.00 Build 0)  -->
<!DOCTYPE svg PUBLIC "-//W3C//DTD SVG 1.1//EN" "http://www.w3.org/Graphics/SVG/1.1/DTD/svg11.dtd">
<svg version="1.1" id="Ebene_1" xmlns="http://www.w3.org/2000/svg" xmlns:xlink="http://www.w3.org/1999/xlink" x="0px" y="0px"
	 width="512px" height="512px" viewBox="0 0 512 512" enable-background="new 0 0 512 512" xml:space="preserve">
<path fill="#DBDF55" d="M486.43,121.364c5.674,1.746,10.538,3.688,10.538,4.466c0,0.582-2.838,2.913-6.079,4.854
	c-5.674,3.106-49.648,36.117-69.914,52.233c-50.054,40.195-123.412,94.566-126.248,93.791
	c-14.793-4.079-59.781-15.534-76.398-19.225c-54.917-12.815-214.603-52.04-215.413-52.817c-1.216-1.165-1.825-0.776,11.753-9.709
	c6.08-4.077,13.375-9.127,16.212-11.068c7.7-5.241,14.185-2.718,14.185,5.438c0,6.408,0.203,6.602,14.793,10.485
	c7.904,2.331,21.886,6.214,30.802,8.738c8.917,2.524,31.816,8.738,50.662,13.592c19.049,5.05,54.917,15.146,80.046,22.526
	c45.796,13.786,64.644,17.863,62.008,13.786c-0.606-1.164-4.254-2.719-7.902-3.302c-3.444-0.775-23.71-6.407-44.987-12.622
	c-42.353-12.426-116.117-33.011-153.809-42.913c-21.075-5.631-28.371-9.32-25.128-12.622c0.608-0.389,8.308,1.164,17.022,3.884
	c8.714,2.524,23.304,6.601,32.221,8.932c8.916,2.331,28.168,7.573,42.556,11.651c14.591,4.079,44.175,12.428,65.86,18.447
	c21.683,6.021,48.836,13.981,60.388,17.672l20.873,6.796l30.802-23.69c77.006-59.614,134.559-104.664,139.219-109.519
	C465.76,115.732,465.558,115.732,486.43,121.364z"/>
<path fill="#DBDF55" d="M502.236,138.644c3.444,2.524,3.444,3.107,0.811,5.243c-12.767,10.098-56.335,43.498-68.899,53.011
	c-8.513,6.408-19.051,14.564-23.507,17.865c-4.257,3.495-17.835,13.981-30.195,23.301c-12.159,9.32-33.234,25.244-46.607,35.536
	c-13.375,10.291-26.144,19.999-28.573,21.358c-3.649,2.138-10.943,0.778-53.703-10.291c-68.291-17.476-172.047-43.69-190.285-48.156
	c-49.041-11.458-53.296-13.204-45.596-19.225c2.229-1.746,4.863-1.746,12.564,0.583c5.268,1.748,19.859,5.438,32.018,8.156
	c33.639,7.767,135.976,32.622,188.461,46.021c25.736,6.603,48.027,11.845,49.648,12.04c1.62,0,17.427-11.263,35.261-25.051
	c17.629-13.981,37.489-29.127,43.771-33.981c27.764-20.582,111.255-85.632,112.469-87.381
	C491.699,134.76,497.574,135.343,502.236,138.644z"/>
<path fill="#DBDF55" d="M503.249,164.859c2.025,1.166,3.851,2.912,3.851,3.69c0,0.971-11.145,11.262-24.723,22.72
	c-13.779,11.65-27.764,23.688-31.005,26.99c-13.78,13.01-79.032,67.963-108.618,91.654l-31.613,25.243l-146.717-34.952
	c-80.652-19.225-146.918-35.146-147.323-35.342c-0.203-0.192,0-1.941,0.811-3.688c0.607-1.749,3.444-3.108,6.282-3.108
	c4.661,0,109.227,24.079,193.122,44.661c95.851,23.302,88.963,22.526,101.525,12.04c4.863-4.077,19.454-15.728,32.222-25.633
	c62.82-49.32,143.474-120.196,140.839-124.275C490.28,162.335,497.98,162.335,503.249,164.859z"/>
<path fill="#DBDF55" d="M469.408,182.724c-0.609,1.359-5.877,6.407-11.957,11.262c-5.878,4.854-17.832,14.759-26.749,22.33
	c-65.05,55.148-121.994,100.003-126.655,100.003c-2.025,0-32.624-6.989-68.087-15.534
	c-107.201-25.632-178.532-42.331-201.836-47.186c-12.362-2.524-22.494-5.244-22.9-6.408c-0.81-2.524,18.037-14.37,23.103-14.37
	c3.04,0,4.66,1.359,5.066,4.272c0.607,4.466,12.563,7.961,84.502,24.855c13.983,3.301,33.032,7.962,42.556,10.486
	c43.771,11.651,129.695,32.233,134.152,32.233c4.257,0,46.001-29.902,88.557-63.302c6.687-5.243,23.304-17.865,36.882-27.962
	c13.578-10.098,28.979-21.75,34.044-25.633C470.826,179.617,470.826,179.617,469.408,182.724z"/>
<path fill="#DBDF55" d="M503.249,210.686c1.013,0.583,1.825,1.747,1.419,2.524c-0.406,0.775-14.794,12.815-32.018,26.408
	c-17.225,13.788-53.297,43.108-80.046,65.05c-26.546,21.941-55.729,45.633-64.441,52.817l-16.211,12.815l-8.31-2.912
	c-4.661-1.555-19.253-5.242-32.626-8.351c-13.374-3.302-50.662-12.427-83.085-20.39c-32.22-7.96-74.168-18.058-93.217-22.523
	c-31.207-7.379-42.353-11.457-39.11-14.37c0.607-0.582,10.942,1.166,23.102,3.884c43.974,10.098,88.354,20.584,157.659,36.895
	c80.854,19.029,70.116,19.225,95.446-1.554c19.656-16.312,33.438-29.127,33.438-31.068c0-1.554-21.685,14.757-42.354,32.039
	c-6.079,5.244-12.361,9.321-14.186,9.321c-1.823,0-52.484-11.651-112.671-26.02C86.608,299.232,31.487,286.417,19.329,284.28
	c-7.498-1.36-7.903-2.331-3.85-7.961l3.039-4.079l34.046,8.352c64.847,15.921,255.537,60.972,258.374,60.972
	c4.662,0,34.247-21.749,70.724-51.847c13.982-11.456,41.948-34.369,61.808-50.681c19.86-16.505,37.086-30.875,38.099-32.233
	c1.416-2.137,3.647-2.137,10.74,0C497.17,208.16,502.033,209.908,503.249,210.686z"/>
<path fill="#DBDF55" d="M472.448,271.076c2.431,9.126,20.466,85.439,20.466,86.799c0,0.583-35.261,1.164-78.424,1.164
	c-54.511-0.193-77.614-0.774-74.979-2.136c1.824-0.97,13.172-4.854,25.331-8.544c21.481-6.602,22.089-6.796,59.78-6.796
	c35.261,0,38.098-0.193,37.49-3.495c-0.608-2.913-3.849-3.302-27.965-3.884l-27.357-0.582l10.132-5.633
	c8.918-5.047,12.159-5.825,25.938-5.825c12.565,0,15.604-0.582,15.604-2.912c0-2.136-2.432-2.913-9.319-2.913h-9.525l11.348-10.291
	c12.159-11.262,14.591-17.282,13.172-33.399c-0.607-7.186,0-8.738,2.838-8.738C469.204,263.89,471.231,266.415,472.448,271.076z"/>
<path fill="#DBDF55" d="M48.712,298.067c1.216,0.387,2.433,2.329,2.433,4.271c0,5.05,3.04,7.186,15.198,10.68l10.132,2.913
	l-11.551,0.195c-8.916,0.193-11.752,0.971-11.752,3.106c0,2.523,4.458,2.912,27.154,2.912c20.873,0,30.194,0.778,39.922,3.691
	c7.092,2.134,16.211,4.465,20.062,5.436c4.661,0.971-9.119,1.942-41.542,2.524c-44.583,0.971-48.636,1.166-49.243,4.466
	c-0.608,3.302,2.837,3.496,64.847,3.302l65.454-0.193l32.221,7.767c17.631,4.271,32.627,8.35,33.234,8.932
	c0.608,0.582-50.053,0.971-112.671,0.971c-62.618,0-113.888-0.581-113.888-1.164c0-0.972,9.93-39.418,14.388-55.73
	C35.136,294.766,36.352,294.378,48.712,298.067z"/>
<path fill="#DBDF55" d="M59.25,421.954c0,4.66,0.608,11.263,1.216,14.563c1.217,5.826,1.014,6.02-5.876,6.02
	c-5.472,0-7.498,0.972-8.512,4.078c-0.81,2.136-1.013,4.467-0.405,4.855c2.026,2.134,411.171,0.774,415.224-1.36
	c3.848-1.941,3.848-3.302,2.634-19.613l-1.419-17.281l7.7,0.583l7.702,0.582l5.674,24.078c3.039,13.205,5.066,24.855,4.458,25.633
	c-1.217,1.942-467.506,2.524-469.331,0.776c-1.014-0.971,8.309-40.196,11.551-49.128c0.608-1.553,5.472-2.331,15.199-2.331H59.25
	V421.954z"/>
<path fill="#DBDF55" d="M73.842,417.489c-0.405,2.717,3.85,3.299,30.397,4.465c65.86,2.718,314.508,10.681,336.595,10.874
	c9.323,0,9.525,0.194,9.525,5.824c0,5.244-0.608,5.826-6.891,5.826c-3.85,0-7.296-1.165-7.7-2.524
	c-0.81-1.747-15.807-2.719-61.604-3.495c-57.958-1.166-213.184-6.406-277.424-9.126l-30.397-1.359l-0.607-7.379
	c-0.609-6.796-0.203-7.379,4.052-6.796C72.625,414.187,74.246,415.547,73.842,417.489z"/>
<path fill="#DBDF55" d="M454.412,419.429v6.213l-67.279-1.357c-37.084-0.778-83.896-2.138-103.958-3.107
	c-20.062-1.165-73.763-2.524-119.561-3.302c-116.522-2.136-70.116-3.495,129.288-4.077l161.51-0.39V419.429z"/>
<path fill="#DBDF55" d="M314.585,442.344c-2.838,0.97-19.657,1.941-37.489,1.941c-17.832,0.193-71.534,1.553-119.562,3.105
	c-47.825,1.36-87.138,2.524-87.341,2.332c-0.203-0.193-0.81-2.136-1.621-4.273c-1.216-3.883-0.203-3.883,125.033-4.272
	C265.749,440.984,317.423,441.373,314.585,442.344z"/>
<path fill="#DBDF55" d="M466.57,480.402v6.796H249.941H33.514l1.013,4.854l0.812,4.854h217.845h217.643l-1.418-11.65l-1.419-11.65
	h7.093c7.092,0,7.295,0,10.538,12.62c1.822,6.797,3.241,15.147,3.241,18.447v5.826H254.805H20.748v-5.048
	c0-4.854,5.472-27.381,7.295-30.293c0.607-0.971,99.5-1.553,219.872-1.553H466.57V480.402z"/>
<path fill="#DBDF55" d="M509.127,70.876c-3.647-1.166-75.587-19.613-144.894-37.089c-26.749-6.796-65.859-16.894-87.138-22.331
	c-21.074-5.63-39.921-10.484-41.542-10.874c-1.621-0.388-7.499,2.718-13.172,6.796c-5.472,4.077-21.48,15.146-35.463,24.855
	c-13.982,9.515-50.864,35.146-82.071,56.895c-31.208,21.749-67.481,46.992-80.653,55.924c-13.172,9.126-23.304,17.089-22.292,17.865
	c1.418,1.359,65.455,19.418,110.037,31.069c7.295,1.941,37.287,10.291,66.873,18.447c29.587,8.349,65.861,18.447,80.858,22.526
	c14.792,4.27,27.964,7.571,29.383,7.571c1.215,0,11.348-7.185,22.493-15.728c11.146-8.737,58.565-45.243,105.175-81.167
	C522.906,64.08,512.773,72.234,509.127,70.876z M225.218,109.906l10.538,1.165l-4.661,4.661c-4.053,4.077-5.877,4.661-13.374,3.495
	c-11.754-1.747-24.724-6.214-29.182-10.098c-2.229-1.942-3.647-5.826-3.647-9.903c0-8.738,12.158-20.389,25.938-24.662
	c12.768-3.883,42.961-2.912,54.106,1.749l8.106,3.301l-5.472,4.659l-5.674,4.661l-8.512-3.69
	c-14.792-6.408-32.423-3.884-43.569,6.214C200.292,100.004,206.777,107.771,225.218,109.906z M342.956,127.575l-23.103,19.031
	l-8.916-1.942l-8.916-1.942l16.01-14.37l15.807-14.371l-12.16,6.41c-33.638,17.669-33.234,17.476-41.744,15.339l-7.903-2.135
	l9.321-16.505c5.27-9.127,8.916-16.894,8.31-17.477c-0.406-0.582-8.31,5.826-17.429,13.982l-16.415,14.757l-9.119-1.165
	c-5.066-0.777-9.119-1.942-8.916-2.72c0-0.777,11.145-10.291,24.52-21.36c13.578-10.873,25.533-19.807,26.546-19.807
	c3.041,0,23.711,6.021,23.711,6.992c0,0.387-3.647,7.379-8.106,15.339c-4.459,7.963-8.106,15.146-8.106,15.73
	c0,0.582,3.04-0.778,6.688-2.913c3.446-2.331,13.578-7.767,22.495-12.04l16.008-7.963l12.971,3.498
	c7.093,1.746,12.564,4.077,12.359,4.854C366.463,107.771,355.723,117.091,342.956,127.575z"/>
<path fill="#DBDF55" d="M490.077,387.972c-1.622-5.824-3.444-12.621-4.054-15.341l-1.013-4.854l-80.449,0.582
	c-68.698,0.584-81.059,1.166-85.315,3.69c-4.255,2.72-6.687,2.72-25.533-0.192c-17.429-2.721-39.719-3.302-142.866-3.691
	c-67.279-0.193-122.601,0-123.007,0.583c-2.229,3.689-7.295,25.631-6.687,29.321l0.607,4.66l234.665,0.581
	c198.392,0.39,234.664,0,235.678-2.328C492.712,399.623,491.901,393.602,490.077,387.972z M472.65,390.108H254.603
	c-206.498,0-217.846-0.193-217.237-3.495c0.608-3.105,12.969-3.302,217.439-4.271c119.359-0.583,217.034-1.165,217.439-1.555
	c0.204-0.193,0.406,1.749,0.406,4.467V390.108z"/>
</svg>
