<?xml version="1.0" standalone="no"?>
<!DOCTYPE svg PUBLIC "-//W3C//DTD SVG 20010904//EN"
 "http://www.w3.org/TR/2001/REC-SVG-20010904/DTD/svg10.dtd">
<svg version="1.0" xmlns="http://www.w3.org/2000/svg"
 width="512.000000pt" height="512.000000pt" viewBox="0 0 512.000000 512.000000"
 preserveAspectRatio="xMidYMid meet">
<metadata>
Created by potrace 1.16, written by Peter Selinger 2001-2019
</metadata>
<g transform="translate(0.000000,512.000000) scale(0.100000,-0.100000)"
fill="#000000" stroke="none">
<path d="M0 2560 l0 -2560 2560 0 2560 0 0 2560 0 2560 -2560 0 -2560 0 0
-2560z m2665 1270 c105 -28 298 -80 430 -115 342 -90 697 -185 715 -191 18 -7
68 35 -456 -385 -230 -185 -464 -373 -519 -418 -55 -44 -105 -81 -111 -81 -7
0 -72 17 -145 39 -74 21 -253 73 -399 116 -146 42 -294 85 -330 95 -220 60
-536 153 -543 160 -5 4 45 45 110 92 65 46 244 176 398 288 154 112 336 244
405 293 69 50 148 107 175 128 28 21 57 37 65 35 8 -2 101 -27 205 -56z m1033
-566 c28 -9 52 -19 52 -23 0 -3 -14 -15 -30 -25 -28 -16 -245 -186 -345 -269
-247 -207 -609 -487 -623 -483 -73 21 -295 80 -377 99 -271 66 -1059 268
-1063 272 -6 6 -9 4 58 50 30 21 66 47 80 57 38 27 70 14 70 -28 0 -33 1 -34
73 -54 39 -12 108 -32 152 -45 44 -13 157 -45 250 -70 94 -26 271 -78 395
-116 226 -71 319 -92 306 -71 -3 6 -21 14 -39 17 -17 4 -117 33 -222 65 -209
64 -573 170 -759 221 -104 29 -140 48 -124 65 3 2 41 -6 84 -20 43 -13 115
-34 159 -46 44 -12 139 -39 210 -60 72 -21 218 -64 325 -95 107 -31 241 -72
298 -91 l103 -35 152 122 c380 307 664 539 687 564 26 28 25 28 128 -1z m78
-89 c17 -13 17 -16 4 -27 -63 -52 -278 -224 -340 -273 -42 -33 -94 -75 -116
-92 -21 -18 -88 -72 -149 -120 -60 -48 -164 -130 -230 -183 -66 -53 -129 -103
-141 -110 -18 -11 -54 -4 -265 53 -337 90 -849 225 -939 248 -242 59 -263 68
-225 99 11 9 24 9 62 -3 26 -9 98 -28 158 -42 166 -40 671 -168 930 -237 127
-34 237 -61 245 -62 8 0 86 58 174 129 87 72 185 150 216 175 137 106 549 441
555 450 9 15 38 12 61 -5z m5 -135 c10 -6 19 -15 19 -19 0 -5 -55 -58 -122
-117 -68 -60 -137 -122 -153 -139 -68 -67 -390 -350 -536 -472 l-156 -130
-724 180 c-398 99 -725 181 -727 182 -1 1 0 10 4 19 3 9 17 16 31 16 23 0 539
-124 953 -230 473 -120 439 -116 501 -62 24 21 96 81 159 132 310 254 708 619
695 640 -8 13 30 13 56 0z m-167 -92 c-3 -7 -29 -33 -59 -58 -29 -25 -88 -76
-132 -115 -321 -284 -602 -515 -625 -515 -10 0 -161 36 -336 80 -529 132 -881
218 -996 243 -61 13 -111 27 -113 33 -4 13 89 74 114 74 15 0 23 -7 25 -22 3
-23 62 -41 417 -128 69 -17 163 -41 210 -54 216 -60 640 -166 662 -166 21 0
227 154 437 326 33 27 115 92 182 144 67 52 143 112 168 132 53 42 53 42 46
26z m167 -144 c5 -3 9 -9 7 -13 -2 -4 -73 -66 -158 -136 -85 -71 -263 -222
-395 -335 -131 -113 -275 -235 -318 -272 l-80 -66 -41 15 c-23 8 -95 27 -161
43 -66 17 -250 64 -410 105 -159 41 -366 93 -460 116 -154 38 -209 59 -193 74
3 3 54 -6 114 -20 217 -52 436 -106 778 -190 399 -98 346 -99 471 8 97 84 165
150 165 160 0 8 -107 -76 -209 -165 -30 -27 -61 -48 -70 -48 -9 0 -259 60
-556 134 -540 134 -812 200 -872 211 -37 7 -39 12 -19 41 l15 21 168 -43 c320
-82 1261 -314 1275 -314 23 0 169 112 349 267 69 59 207 177 305 261 98 85
183 159 188 166 7 11 18 11 53 0 24 -7 48 -16 54 -20z m-152 -311 c12 -47 101
-440 101 -447 0 -3 -174 -6 -387 -6 -269 1 -383 4 -370 11 9 5 65 25 125 44
106 34 109 35 295 35 174 0 188 1 185 18 -3 15 -19 17 -138 20 l-135 3 50 29
c44 26 60 30 128 30 62 0 77 3 77 15 0 11 -12 15 -46 15 l-47 0 56 53 c60 58
72 89 65 172 -3 37 0 45 14 45 11 0 21 -13 27 -37z m-2091 -139 c6 -2 12 -12
12 -22 0 -26 15 -37 75 -55 l50 -15 -57 -1 c-44 -1 -58 -5 -58 -16 0 -13 22
-15 134 -15 103 0 149 -4 197 -19 35 -11 80 -23 99 -28 23 -5 -45 -10 -205
-13 -220 -5 -240 -6 -243 -23 -3 -17 14 -18 320 -17 l323 1 159 -40 c87 -22
161 -43 164 -46 3 -3 -247 -5 -556 -5 -309 0 -562 3 -562 6 0 5 49 203 71 287
10 38 16 40 77 21z m1209 -380 c93 -15 105 -15 126 -1 21 13 82 16 421 19
l397 3 5 -25 c3 -14 12 -49 20 -79 9 -29 13 -60 10 -67 -5 -12 -184 -14 -1163
-12 l-1158 3 -3 24 c-3 19 22 132 33 151 2 3 275 4 607 3 509 -2 619 -5 705
-19z m-1157 -258 c0 -24 3 -58 6 -75 6 -30 5 -31 -29 -31 -27 0 -37 -5 -42
-21 -4 -11 -5 -23 -2 -25 10 -11 2029 -4 2049 7 19 10 19 17 13 101 l-7 89 38
-3 38 -3 28 -124 c15 -68 25 -128 22 -132 -6 -10 -2307 -13 -2316 -4 -5 5 41
207 57 253 3 8 27 12 75 12 l70 0 0 -44z m72 23 c-2 -14 19 -17 150 -23 325
-14 1552 -55 1661 -56 46 0 47 -1 47 -30 0 -27 -3 -30 -34 -30 -19 0 -36 6
-38 13 -4 9 -78 14 -304 18 -286 6 -1052 33 -1369 47 l-150 7 -3 38 c-3 35 -1
38 20 35 14 -2 22 -9 20 -19z m1878 -10 l0 -32 -332 7 c-183 4 -414 11 -513
16 -99 6 -364 13 -590 17 -575 11 -346 18 638 21 l797 2 0 -31z m-690 -118
c-14 -5 -97 -10 -185 -10 -88 -1 -353 -8 -590 -16 -236 -7 -430 -13 -431 -12
-1 1 -4 11 -8 22 -6 20 -1 20 617 22 356 1 611 -1 597 -6z m750 -196 l0 -35
-1069 0 -1068 0 5 -25 4 -25 1075 0 1074 0 -7 60 -7 60 35 0 c35 0 36 0 52
-65 9 -35 16 -78 16 -95 l0 -30 -1155 0 -1155 0 0 26 c0 25 27 141 36 156 3 5
491 8 1085 8 l1079 0 0 -35z"/>
<path d="M2338 3505 c-68 -22 -128 -82 -128 -127 0 -21 7 -41 18 -51 22 -20
86 -43 144 -52 37 -6 46 -3 66 18 l23 24 -52 6 c-91 11 -123 51 -76 95 55 52
142 65 215 32 l42 -19 28 24 27 24 -40 17 c-55 24 -204 29 -267 9z"/>
<path d="M2592 3358 c-66 -57 -121 -106 -121 -110 -1 -4 19 -10 44 -14 l45 -6
81 76 c45 42 84 75 86 72 3 -3 -15 -43 -41 -90 l-46 -85 39 -11 c42 -11 40
-12 206 79 l60 33 -78 -74 -79 -74 44 -10 44 -10 114 98 c63 54 116 102 118
107 1 4 -26 16 -61 25 l-64 18 -79 -41 c-44 -22 -94 -50 -111 -62 -18 -11 -33
-18 -33 -15 0 3 18 40 40 81 22 41 40 77 40 79 0 5 -102 36 -117 36 -5 0 -64
-46 -131 -102z"/>
<path d="M2555 1920 c-1009 -5 -1070 -6 -1073 -22 -3 -17 53 -18 1072 -18
l1076 0 0 25 c0 14 -1 24 -2 23 -2 -2 -484 -5 -1073 -8z"/>
</g>
</svg>
